<svg width="69" height="56" viewBox="0 0 69 56" fill="none" xmlns="http://www.w3.org/2000/svg">
<path fill-rule="evenodd" clip-rule="evenodd" d="M34.5 17.25C27.2513 17.25 21.375 22.9584 21.375 30C21.375 37.0416 27.2513 42.75 34.5 42.75C41.7487 42.75 47.625 37.0416 47.625 30C47.625 22.9584 41.7487 17.25 34.5 17.25ZM17 30C17 20.6112 24.835 13 34.5 13C44.165 13 52 20.6112 52 30C52 39.3888 44.165 47 34.5 47C24.835 47 17 39.3888 17 30Z" fill="#677D2A"/>
<path fill-rule="evenodd" clip-rule="evenodd" d="M29.1094 4.30769C27.752 4.30769 26.4738 4.94607 25.6594 6.03077L23.0719 9.47692C21.443 11.6463 18.8867 12.9231 16.1719 12.9231H10.7812C7.20866 12.9231 4.3125 15.816 4.3125 19.3846V45.2308C4.3125 48.7994 7.20866 51.6923 10.7812 51.6923H58.2188C61.7913 51.6923 64.6875 48.7994 64.6875 45.2308V19.3846C64.6875 15.816 61.7913 12.9231 58.2188 12.9231H52.8281C50.1133 12.9231 47.557 11.6463 45.9281 9.47692L43.3406 6.03077C42.5262 4.94607 41.248 4.30769 39.8906 4.30769H29.1094ZM22.2094 3.44615C23.8382 1.27675 26.3946 0 29.1094 0H39.8906C42.6054 0 45.1618 1.27675 46.7906 3.44615L49.3781 6.89231C50.1926 7.97701 51.4707 8.61539 52.8281 8.61539H58.2188C64.1731 8.61539 69 13.4369 69 19.3846V45.2308C69 51.1785 64.1731 56 58.2188 56H10.7812C4.82693 56 0 51.1785 0 45.2308V19.3846C0 13.4369 4.82693 8.61539 10.7812 8.61539H16.1719C17.5293 8.61539 18.8074 7.97701 19.6219 6.89231L22.2094 3.44615Z" fill="#677D2A"/>
</svg>
